<?xml version="1.0" standalone="no"?>
<!DOCTYPE svg PUBLIC "-//W3C//DTD SVG 20010904//EN"
 "http://www.w3.org/TR/2001/REC-SVG-20010904/DTD/svg10.dtd">
<svg version="1.0" xmlns="http://www.w3.org/2000/svg"
 width="1024.000000pt" height="1024.000000pt" viewBox="0 0 1024.000000 1024.000000"
 preserveAspectRatio="xMidYMid meet">
<metadata>
Created by potrace 1.11, written by Peter Selinger 2001-2013
</metadata>
<g transform="translate(0.000000,1024.000000) scale(0.100000,-0.100000)"
fill="#000000" stroke="none">
<path d="M1472 7719 c-72 -28 -144 -101 -171 -174 l-21 -56 2 -1612 3 -1612
27 -51 c32 -60 93 -118 157 -148 l46 -21 2120 0 2120 0 46 21 c59 27 114 76
143 128 23 39 1112 3083 1136 3176 27 100 -12 214 -100 293 -94 85 182 77
-2799 76 -2645 0 -2656 0 -2709 -20z m4857 -596 c0 -5 -197 -559 -437 -1233
l-438 -1225 -1772 -3 -1772 -2 0 1235 0 1235 2210 0 c1216 0 2210 -3 2209 -7z"/>
<path d="M7682 7723 c-63 -22 -144 -101 -174 -170 -14 -32 -324 -905 -688
-1940 l-663 -1883 -2313 0 -2313 0 -58 -21 c-113 -43 -193 -160 -193 -284 0
-124 80 -241 193 -284 l58 -21 2462 0 2462 0 60 29 c85 40 136 100 175 209 17
48 319 904 671 1902 352 998 644 1827 651 1843 l10 27 429 0 c408 0 431 1 483
21 67 25 133 86 166 154 35 71 35 189 1 259 -31 63 -84 116 -147 147 l-49 24
-590 2 c-506 1 -596 -1 -633 -14z"/>
<path d="M1681 2880 c-71 -11 -135 -35 -199 -78 -195 -128 -259 -393 -145
-604 54 -100 177 -191 300 -223 242 -63 505 90 567 330 33 126 11 258 -62 371
-96 148 -281 230 -461 204z"/>
<path d="M5921 2880 c-71 -11 -135 -35 -199 -78 -195 -128 -259 -393 -145
-604 15 -27 52 -72 83 -102 194 -186 495 -179 674 15 149 160 167 381 48 565
-96 148 -281 230 -461 204z"/>
</g>
</svg>
